<?xml version="1.0" encoding="UTF-8"?>
<svg width="450px" height="110px" viewBox="0 0 450 110" version="1.1" xmlns="http://www.w3.org/2000/svg" xmlns:xlink="http://www.w3.org/1999/xlink">
    <!-- Generator: Sketch 41.2 (35397) - http://www.bohemiancoding.com/sketch -->
    <title>logo</title>
    <desc>Created with Sketch.</desc>
    <defs></defs>
    <g id="Branding" stroke="none" stroke-width="1" fill="none" fill-rule="evenodd">
        <g transform="translate(-1724.000000, -2431.000000)" id="Logos">
            <g transform="translate(1328.000000, 1292.000000)">
                <g id="normal" transform="translate(63.000000, 434.000000)">
                    <g id="logo" transform="translate(333.000000, 705.000000)">
                        <path d="M172.445312,70.15625 C172.445312,78.546917 174.718727,85.695283 179.265625,91.6015625 C181.421886,94.6484527 184.023422,96.8984302 187.070312,98.3515625 C190.117203,99.8046948 193.632793,100.554687 197.617188,100.601562 C205.632853,100.507812 211.562481,97.5547166 215.40625,91.7421875 C219.484395,85.835908 221.523438,78.6406674 221.523438,70.15625 C221.523438,62.0937097 219.601582,54.9219064 215.757812,48.640625 C213.976554,45.6874852 211.562515,43.4375077 208.515625,41.890625 C205.468735,40.3437423 201.859396,39.523438 197.6875,39.4296875 C193.890606,39.6640637 190.457047,40.484368 187.386719,41.890625 C184.316391,43.296882 181.691417,45.277331 179.511719,47.8320312 C177.33202,50.3867315 175.644537,53.5273251 174.449219,57.2539062 C173.2539,60.9804874 172.585938,65.2812256 172.445312,70.15625 Z M172.445312,43.15625 C175.117201,39.4999817 178.574198,36.6523539 182.816406,34.6132812 C187.058615,32.5742086 191.992159,31.507813 197.617188,31.4140625 C202.914089,31.507813 207.542949,32.5507713 211.503906,34.5429688 C215.464864,36.5351662 218.781237,39.4296685 221.453125,43.2265625 L221.453125,43.15625 C226.843777,50.5156618 229.539062,59.5155718 229.539062,70.15625 C229.539062,81.2656805 226.773465,90.2890278 221.242188,97.2265625 C215.476534,104.63285 207.601612,108.429687 197.617188,108.617188 C193.773418,108.570312 190.24611,107.984381 187.035156,106.859375 C183.824203,105.734369 180.906263,104.117198 178.28125,102.007812 L178.351562,102.078125 C173.242162,98.0468548 169.539074,92.6562838 167.242188,85.90625 L167.242188,85.9765625 C166.632809,84.3359293 166.140627,82.3086058 165.765625,79.8945312 C165.390623,77.4804567 165.097657,74.8789202 164.886719,72.0898438 C164.67578,69.3007673 164.523438,66.4531395 164.429688,63.546875 C164.335937,60.6406105 164.289062,57.8750131 164.289062,55.25 C164.289062,52.859363 164.3125,50.6562601 164.359375,48.640625 C164.40625,46.6249899 164.453125,44.9609441 164.5,43.6484375 L164.5,6.2421875 L172.445312,6.2421875 L172.445312,43.15625 Z M302.328125,65.234375 C302.140624,61.7187324 301.507818,58.4843898 300.429688,55.53125 C299.351557,52.5781102 297.945321,49.8593874 296.210938,47.375 C294.148427,44.8437373 291.570328,42.8867257 288.476562,41.5039062 C285.382797,40.1210868 281.84377,39.4296875 277.859375,39.4296875 C274.624984,39.4296875 271.578139,40.0742123 268.71875,41.3632812 C265.859361,42.6523502 263.257824,44.4687383 260.914062,46.8125 C258.804677,49.203137 257.117194,51.8984225 255.851562,54.8984375 C254.585931,57.8984525 253.695315,61.3437305 253.179688,65.234375 L302.328125,65.234375 Z M252.898438,73.1796875 C253.085938,77.1640824 253.67187,80.7031095 254.65625,83.796875 C255.64063,86.8906405 257.023429,89.7265496 258.804688,92.3046875 C260.726572,95.1172016 263.210922,97.1913996 266.257812,98.5273438 C269.304703,99.8632879 273.031228,100.554687 277.4375,100.601562 C284.140659,100.554687 289.519511,98.6679874 293.574219,94.9414062 C297.628927,91.2148251 300.406243,85.5312882 301.90625,77.890625 L309.921875,77.890625 C308.515618,88.484428 304.976591,96.2187256 299.304688,101.09375 C293.445283,106.062525 286.226605,108.570312 277.648438,108.617188 C266.257756,108.523437 257.937526,104.7266 252.6875,97.2265625 C247.390599,90.0077764 244.789062,80.9375546 244.882812,70.015625 C244.976563,63.8749693 245.890616,58.425805 247.625,53.6679688 C249.359384,48.9101325 251.843734,44.8437669 255.078125,41.46875 L255.007812,41.46875 C261.289094,34.7655915 268.835893,31.4140625 277.648438,31.4140625 C283.414091,31.507813 288.441385,32.5976458 292.730469,34.6835938 C297.019553,36.7695417 300.523424,39.757793 303.242188,43.6484375 C304.273443,45.3359459 305.222652,47.1640527 306.089844,49.1328125 C306.957036,51.1015723 307.718747,53.1406145 308.375,55.25 C309.031253,57.3593855 309.546873,59.5038954 309.921875,61.6835938 C310.296877,63.8632921 310.484375,66.007802 310.484375,68.1171875 L310.484375,68.609375 C310.484375,68.7968759 310.472656,69.0664045 310.449219,69.4179688 C310.425781,69.769533 310.390625,70.2382783 310.34375,70.8242188 C310.296875,71.4101592 310.226563,72.1953076 310.132812,73.1796875 L252.898438,73.1796875 Z M329.34375,6.2421875 L337.359375,6.2421875 L337.359375,107 L329.34375,107 L329.34375,6.2421875 Z M357.0625,6.2421875 L365.078125,6.2421875 L365.078125,107 L357.0625,107 L357.0625,6.2421875 Z M441.171875,65.234375 C440.984374,61.7187324 440.351568,58.4843898 439.273438,55.53125 C438.195307,52.5781102 436.789071,49.8593874 435.054688,47.375 C432.992177,44.8437373 430.414078,42.8867257 427.320312,41.5039062 C424.226547,40.1210868 420.68752,39.4296875 416.703125,39.4296875 C413.468734,39.4296875 410.421889,40.0742123 407.5625,41.3632812 C404.703111,42.6523502 402.101574,44.4687383 399.757812,46.8125 C397.648427,49.203137 395.960944,51.8984225 394.695312,54.8984375 C393.429681,57.8984525 392.539065,61.3437305 392.023438,65.234375 L441.171875,65.234375 Z M391.742188,73.1796875 C391.929688,77.1640824 392.51562,80.7031095 393.5,83.796875 C394.48438,86.8906405 395.867179,89.7265496 397.648438,92.3046875 C399.570322,95.1172016 402.054672,97.1913996 405.101562,98.5273438 C408.148453,99.8632879 411.874978,100.554687 416.28125,100.601562 C422.984409,100.554687 428.363261,98.6679874 432.417969,94.9414062 C436.472677,91.2148251 439.249992,85.5312882 440.75,77.890625 L448.765625,77.890625 C447.359368,88.484428 443.820341,96.2187256 438.148437,101.09375 C432.289033,106.062525 425.070355,108.570312 416.492188,108.617188 C405.101506,108.523437 396.781276,104.7266 391.53125,97.2265625 C386.234349,90.0077764 383.632812,80.9375546 383.726562,70.015625 C383.820313,63.8749693 384.734366,58.425805 386.46875,53.6679688 C388.203134,48.9101325 390.687484,44.8437669 393.921875,41.46875 L393.851562,41.46875 C400.132844,34.7655915 407.679643,31.4140625 416.492188,31.4140625 C422.257841,31.507813 427.285135,32.5976458 431.574219,34.6835938 C435.863303,36.7695417 439.367174,39.757793 442.085938,43.6484375 C443.117193,45.3359459 444.066402,47.1640527 444.933594,49.1328125 C445.800786,51.1015723 446.562497,53.1406145 447.21875,55.25 C447.875003,57.3593855 448.390623,59.5038954 448.765625,61.6835938 C449.140627,63.8632921 449.328125,66.007802 449.328125,68.1171875 L449.328125,68.609375 C449.328125,68.7968759 449.316406,69.0664045 449.292969,69.4179688 C449.269531,69.769533 449.234375,70.2382783 449.1875,70.8242188 C449.140625,71.4101592 449.070313,72.1953076 448.976562,73.1796875 L391.742188,73.1796875 Z" id="belle" fill="#575757"></path>
                        <circle id="Oval" fill="#EF428B" cx="34" cy="26" r="26"></circle>
                        <polygon id="Triangle" fill="#00DCFF" style="mix-blend-mode: multiply;" points="71.6208091 24 114.241618 109.241618 29 109.241618"></polygon>
                        <circle id="Oval" fill="#FEE900" style="mix-blend-mode: multiply;" cx="34" cy="75" r="34"></circle>
                    </g>
                </g>
            </g>
        </g>
    </g>
</svg>